<?xml version="1.0" encoding="utf-8"?>
<!-- Generator: Adobe Illustrator 24.0.0, SVG Export Plug-In . SVG Version: 6.00 Build 0)  -->
<svg version="1.1" id="图层_1" xmlns="http://www.w3.org/2000/svg" xmlns:xlink="http://www.w3.org/1999/xlink" x="0px" y="0px"
	 viewBox="0 0 32.3 32.3" style="enable-background:new 0 0 32.3 32.3;" xml:space="preserve">
<style type="text/css">
	.st0{fill-rule:evenodd;clip-rule:evenodd;fill:#757575;}
</style>
<path class="st0" d="M32.3,28.7c-0.9,0-1.7,0-2.6,0c-0.1,0-0.2-0.1-0.2-0.2c-0.1-1.3-0.2-2.6-0.4-4c-0.1-1.2-0.2-2.5-0.3-3.7
	c-0.1-1.3-0.2-2.5-0.4-3.8c0-0.1,0-0.1,0-0.3c0.3,0,0.6-0.1,0.9-0.1c0.8,0,1.6,0,2.5,0c0.2,0,0.3,0.1,0.3,0.3c0,0.4,0.1,0.8,0.1,1.2
	c0,1.9,0,3.7,0,5.6c0,1.5,0.1,3,0.1,4.5C32.3,28.4,32.3,28.5,32.3,28.7z M32,15.4c-0.6,0-1.1-0.1-1.7-0.1c0-1.5,0-2.9,0-4.4
	c0.4,0,0.9,0,1.4,0c0.2,0,0.4,0.1,0.3,0.4c0,1.3,0,2.6,0,3.9C32,15.2,32,15.2,32,15.4z M28.1,10.9c0.5,0,0.9,0,1.4,0
	c0.2,0,0.3,0,0.3,0.3c0,0.6,0,1.2,0,1.9c0,0.8,0,1.5,0,2.3c-0.5,0-0.9,0.1-1.3,0.1C28.3,13.9,28.2,12.4,28.1,10.9z M27.4,27.3
	c-0.8-0.1-1.6-0.1-2.4-0.2c-0.7-7.2-1.3-14.5-2.8-21.8c0.5-0.1,0.9-0.1,1.4-0.2c0.5,0,1.1-0.1,1.6-0.1c0.4,0,0.6,0.1,0.6,0.5
	C25.9,6.7,26,7.9,26.1,9c0.1,1.6,0.2,3.1,0.3,4.7c0.1,1.1,0.2,2.2,0.2,3.4c0.1,1.2,0.2,2.4,0.3,3.7c0.1,0.9,0.2,1.8,0.2,2.7
	c0.1,1,0.2,1.9,0.3,2.9c0,0.3,0.1,0.6,0.1,0.8C27.6,27.3,27.6,27.3,27.4,27.3z M22.6,21.6c0.1,0.9,0.2,1.8,0.3,2.7
	c0.1,1,0.3,1.9,0.4,2.9c0,0.3,0.1,0.6,0.1,0.9c-0.9,0.1-1.8,0.2-2.7,0.3c-0.8-3.9-1.6-7.8-2.4-11.8c0.6-0.1,1.3-0.2,1.9-0.3
	c0.5-0.1,0.9-0.1,1.4-0.1c0.2,0,0.4,0.1,0.4,0.3c0.1,0.6,0.2,1.2,0.3,1.9C22.4,19.5,22.5,20.5,22.6,21.6z M19.5,10.4
	c0.5,0,1,0,1.5,0c0.2,0,0.2,0.1,0.3,0.3c0.1,1.4,0.3,2.8,0.4,4.2c-0.5,0-1.1,0.1-1.6,0.1C19.9,13.4,19.7,12,19.5,10.4z M17.4,10.8
	c0.5-0.1,1-0.2,1.5-0.2c0.2,0,0.2,0.2,0.2,0.3c0.1,0.5,0.1,1,0.2,1.5c0.1,0.8,0.2,1.6,0.3,2.3c0,0.1,0,0.2,0,0.3
	c-0.4,0.1-0.8,0.2-1.3,0.2C17.9,13.8,17.7,12.3,17.4,10.8z M18.7,25c-0.2,0.7-0.7,1.2-1.3,1.6c-1.4,1-2.8,2-4.4,2.5
	c-1.1,0.4-2.3,0.6-3.5,0.8c-1.6,0.2-3.2,0.3-4.7,0.5c-0.3,0-0.7,0-1,0c-0.2,0-0.2-0.1-0.2-0.2c0-0.7-0.1-1.4-0.1-2.1
	c-0.1-0.9-0.2-1.8-0.3-2.7c-0.1-1.3-0.3-2.5-0.5-3.8c-0.2-1.3-0.3-2.6-0.5-4C2,16.3,1.8,15,1.7,13.7c-0.2-1.5-0.4-3-0.6-4.4
	C0.8,7.5,0.5,5.7,0,4C0,4,0,3.8,0.1,3.8C1.6,3.2,3.2,2.6,4.7,2c0.5-0.2,0.6-0.3,0.6,0.4c0,2.7,0,5.4,0.1,8c0,1.4,0.1,2.8,0.2,4.2
	C5.6,16.3,5.8,18,6,19.7c0,0.1,0,0.1,0.1,0.2c0.6,0,1.2-0.1,1.7-0.1c2.4,0,4.8,0.2,7.1,1.1c1.1,0.4,2.2,0.9,3.2,1.7
	C18.9,23.2,19,23.9,18.7,25z M8.4,22.6c0.2,1.7,0.5,3.3,0.7,5c1.4-1,2.8-2.1,4.2-3.1C13.1,24.3,9.3,22.8,8.4,22.6z"/>
</svg>
